<svg xmlns="http://www.w3.org/2000/svg" xml:space="preserve" width="75" height="20" viewBox="0 8.601 75 20"><path fill="#002B5C" d="M24.537 24.164c-1.042 0-1.864-.245-2.658-.601-.166-.714-.22-1.671-.274-2.659l.629-.108c.356 1.343.85 2.656 2.496 2.656 1.15 0 1.834-.713 1.834-1.779 0-2.822-4.686-2.192-4.686-5.452 0-1.477 1.206-2.82 3.344-2.82.712 0 1.48.192 2.247.465.055.575.111 1.233.137 2.383l-.576.026c-.273-.958-.712-2.134-2.111-2.134-1.04 0-1.562.71-1.562 1.56 0 2.601 4.77 2.053 4.77 5.451.002 1.617-1.452 3.012-3.59 3.012M32.35 24.057c2.055-.248 3.7-1.811 3.7-4.109 0-1.424-.96-2.903-2.658-2.903-.192 0-.384.026-.578.136l-1.479.768v-1.041c-.796.273-1.563.52-2.386.686v.465c.932.083.96.11.96 1.069v7.312c0 .931-.083 1.012-1.07 1.123v.519h3.865v-.519c-1.259-.111-1.369-.192-1.369-1.123v-2.576c.219.082.576.164 1.015.193m-1.014-5.479c.355-.219.932-.521 1.369-.521 1.042 0 1.865.767 1.865 2.492 0 2.054-1.042 2.657-1.837 2.657-.603 0-1.096-.246-1.397-.574zm9.921.162c-.164-.217-.382-.272-.657-.272-.356 0-.796.412-1.097 1.26v2.546c0 .933.11 1.014 1.288 1.098v.547h-3.728v-.547c.931-.084 1.041-.165 1.041-1.098v-3.096c0-.929-.081-.929-.932-1.093v-.465c.821-.166 1.617-.33 2.331-.603v1.643h.026c.494-.905 1.18-1.615 1.812-1.615.547 0 .93.411.93.848 0 .63-.657 1.177-1.014.847M42.985 23.918v-.547c.931-.084 1.067-.165 1.067-1.153v-2.957c0-1.068-.081-1.068-.986-1.176v-.465c.849-.166 1.699-.359 2.385-.603v5.201c0 .988.082 1.069 1.041 1.153v.547zm1.699-8.354a.923.923 0 0 1-.933-.929c0-.549.41-.96.933-.96.548 0 .96.412.96.96 0 .519-.412.929-.96.929M51.646 23.918v-.547c.769-.084.878-.165.878-1.043v-2.685c0-.985-.439-1.587-1.261-1.587-.521 0-1.125.382-1.536.767v3.505c0 .878.081.959.85 1.043v.547h-3.345v-.547c.931-.084 1.069-.165 1.069-1.043v-3.15c0-.929-.055-.985-.877-1.093v-.465c.823-.166 1.589-.33 2.303-.603v1.094c.357-.301 1.398-1.067 2.193-1.067 1.233 0 2.001.848 2.001 2.11v3.174c0 .878.138.959.959 1.043v.547zm8.553-.546h-1.643c-.659 0-.905-.303-.905-.55 0-.245.274-.629.602-.737.191 0 .413.027.496.027 1.369 0 2.877-.903 2.877-2.577 0-.464-.166-1.066-.386-1.368l.795.083c.247-.138.55-.604.658-.849l-.108-.165a24 24 0 0 1-2.084.19 3.4 3.4 0 0 0-1.59-.382c-1.315 0-2.906.958-2.906 2.739 0 .985.685 1.862 1.427 2.108-.249.301-.824.796-1.454 1.068-.054.876.768 1.341 1.234 1.507-1.288.985-1.59 1.45-1.59 2.054 0 .929.986 2.08 2.85 2.08 2.138 0 3.976-1.479 3.976-3.231-.001-1.533-1.29-1.997-2.249-1.997M58.773 17.7c.852 0 1.371.877 1.371 1.944 0 1.26-.577 1.781-1.178 1.781-.824 0-1.426-.822-1.426-1.973s.658-1.752 1.233-1.752m.356 10.052c-1.232 0-2.055-.712-2.055-1.643 0-.657.521-1.534 1.699-1.534.852 0 1.371.027 1.755.165.411.164.74.629.74 1.203 0 .904-.768 1.809-2.139 1.809m7.648-4.848c-1.068 0-2.138-.766-2.192-2.573a81 81 0 0 0 3.866-.219c.3-.057.382-.22.382-.632 0-1.287-1.068-2.436-2.412-2.436-1.615 0-3.234 1.67-3.234 3.804 0 1.754 1.123 3.234 3.07 3.234.494 0 1.563-.273 2.466-1.396l-.355-.494c-.549.548-.988.712-1.591.712m-.657-5.175c.74 0 1.26.711 1.26 1.451 0 .274-.055.357-.355.357l-2.358.054c.164-1.178.823-1.862 1.453-1.862m7.894 1.011a.94.94 0 0 0-.658-.272c-.357 0-.821.412-1.124 1.26v2.546c0 .933.11 1.014 1.289 1.098v.547h-3.756v-.547c.959-.084 1.042-.165 1.042-1.098v-3.096c0-.929-.055-.929-.93-1.093v-.465c.875-.166 1.643-.33 2.356-.603v1.643h.027c.466-.905 1.152-1.615 1.81-1.615.521 0 .931.411.931.848-.002.63-.685 1.177-.987.847M2.851 23.958v-.795h1.098c.191-2.575 2.658-3.532 4.029-5.614h-1.59c-.768.273-1.918 1.972-1.918 2.957H2.468l.027-.82-.658.544-1.755-2.025S0 18.097 0 18.014s.027-.136.027-.136l2.769-3.752.494-1.479.74-.273.769-1.07-.275-1.865c.74-.271 1.454-.026 1.809.329a10 10 0 0 0-.028-1.15c1.316-.135 1.78.576 2.002 1.371.356.027.685.081.986.137a.445.445 0 0 1 .412-.301c.247 0 .413.191.413.41v.109a8 8 0 0 1 1.615.768.39.39 0 0 1 .328-.165c.248 0 .413.192.413.411q0 .164-.081.246c.465.383.849.85 1.206 1.344a.5.5 0 0 1 .191-.056c.246 0 .438.192.438.411 0 .163-.081.302-.219.356.274.494.494 1.042.659 1.616.028-.028.082-.028.109-.028.246 0 .411.192.411.411s-.137.384-.302.412c.11.573.192 1.151.247 1.752.247 0 .439.192.439.412 0 .247-.192.409-.412.438 0 .574-.027 1.205-.082 1.809.219.025.385.217.385.437s-.191.413-.439.413h-.027c-.11.6-.219 1.203-.356 1.833h1.151v.795H2.851zm5.62-13.12c.027.274.027.495.027.712 0 .329-.027.603-.027.603l-.796-.136c.028-.275.083-2.138-.575-2.548 0 0 0 .985-.22 1.971l-.74-.135c0-.685-.301-.959-.712-1.149l.191 1.34-.466.684.221.631-1.454.491-.411 1.179L.96 17.986l.959 1.15 1.07-.902.246.164v1.342h.576c.246-.959 1.041-2.082 1.781-2.629l-.412-.494.603-.518.577.711s2.058 0 2.058-.028c.3-.659.492-1.452.492-2.382h.795c0 3.123-1.562 4.353-3.509 6.271-.713.711-1.343 1.479-1.425 2.52h9.046c1.589-6.548-.275-11.752-5.346-12.353m-6.304 7.476-.577-.217c.191-.275.302-.658.302-.986l.493.026c.027.356-.028.904-.218 1.177m2.136-3.559-.082-1.014 1.289-.137.028.494z"/><path fill="#F58025" d="M2.857 26.396h12.911v1.587H2.857z"/></svg>